<svg width="110" height="110" viewBox="0 0 110 110" fill="none" xmlns="http://www.w3.org/2000/svg">
<circle cx="55" cy="55" r="50" fill="white"></circle>
<path d="M53.4689 74.6625H27.1936C24.8775 74.6625 23 72.7849 23 70.4689V47.1936C23 44.8775 24.8775 43 27.1936 43H53.4689C55.785 43 57.6625 44.8775 57.6625 47.1936V70.4689C57.6624 72.7851 55.785 74.6625 53.4689 74.6625Z" fill="#9EC8FD"></path>
<path d="M45.0924 70.2188L31.3798 85.4549V71.7424" fill="#9EC8FD"></path>
<path d="M56.8561 59.6625H83.1314C85.4475 59.6625 87.325 57.7849 87.325 55.4689V32.1936C87.325 29.8775 85.4475 28 83.1314 28H56.8561C54.54 28 52.6625 29.8775 52.6625 32.1936V55.4689C52.6626 57.7851 54.54 59.6625 56.8561 59.6625Z" fill="#2D2DA5"></path>
<path d="M65.2326 55.2188L78.9452 70.4549V56.7424" fill="#2D2DA5"></path>
<path d="M63.6625 50.8276C63.6625 50.7842 63.6859 50.6974 63.7092 50.6105L68.2137 36.9552C68.4239 36.3039 69.2875 36 70.1509 36C71.0379 36 71.9014 36.304 72.1113 36.9552L76.6159 50.6105C76.6392 50.6973 76.6625 50.7626 76.6625 50.8276C76.6625 51.5006 75.5658 52 74.7487 52C74.2352 52 73.8384 51.848 73.7218 51.4356L72.8349 48.5482H67.49L66.6033 51.4356C66.4865 51.8481 66.0898 52 65.5764 52C64.7595 51.9999 63.6625 51.5223 63.6625 50.8276ZM72.1815 46.3337L70.1509 39.669L68.1204 46.3337H72.1815Z" fill="white"></path>
<path d="M38.7564 69.0727V67.6023C36.3897 67.3309 34.6625 65.8833 34.6625 62.4904V56.1797C34.6625 52.3797 36.8372 51 39.6518 51C42.4664 51 44.6625 52.3797 44.6625 56.1797V62.4904C44.6625 65.8606 42.9141 67.3309 40.5261 67.6023V69.0727C40.5261 69.6834 40.0996 70 39.6518 70C39.2041 70 38.7564 69.6834 38.7564 69.0727ZM41.8907 56.1797C41.8907 54.4154 41.0376 53.5785 39.6518 53.5785C38.2446 53.5785 37.4343 54.4153 37.4343 56.1797V62.4904C37.4343 63.8248 37.9034 64.6166 38.7564 64.9106V63.7119C38.7564 63.0785 39.2042 62.8071 39.6518 62.8071C40.0995 62.8071 40.5261 63.0785 40.5261 63.7119V64.9106C41.3789 64.6164 41.8907 63.825 41.8907 62.4904V56.1797Z" fill="white"></path>
</svg>