<svg width="110" height="110" viewBox="0 0 110 110" fill="none" xmlns="http://www.w3.org/2000/svg">
<circle cx="55" cy="55" r="55" fill="white"></circle>
<path d="M69.8397 72.426C70.5617 72.0134 71.5416 72.2712 71.9541 72.9932C72.3667 73.7152 72.1088 74.6434 71.3869 75.1075C66.7456 77.7891 61.6918 79.1299 56.6895 79.2331V83.3587H53.5953V79.13C43.797 78.408 34.5659 73.0964 29.3058 64.0201C20.8483 49.4773 25.9538 30.7059 40.7026 22.1969C41.4246 21.7843 42.4044 22.0422 42.817 22.7641C43.2296 23.4861 42.9718 24.466 42.2498 24.8786C28.9964 32.5109 24.4067 49.3743 31.9874 62.473C39.6198 75.5718 56.5863 80.0583 69.8397 72.426Z" fill="#FF6600"></path>
<path d="M56.1737 24.0533C69.8397 24.0533 80.9273 35.1409 80.9273 48.8069C80.9273 62.4729 69.8397 73.5604 56.1737 73.5604C42.5078 73.5604 31.4202 62.473 31.4202 48.8069C31.4202 35.1407 42.5078 24.0533 56.1737 24.0533Z" fill="#9EC8FD"></path>
<path d="M74.6357 65.3093C76.3376 58.7084 77.8846 49.1679 72.9855 50.2509C68.2927 51.2823 62.4652 52.4169 59.6805 52.8293C56.8959 53.2418 53.5437 50.4571 49.7792 48.4459C49.2635 46.3315 49.212 45.197 52.1514 43.031C55.1424 40.8136 56.5349 45.1454 57.7209 43.8562C59.6805 41.484 58.3397 39.2665 60.8667 34.1095C63.3936 29.0556 63.6515 29.8292 65.4564 25.8583C62.62 24.7238 59.4743 24.0533 56.1739 24.0533C46.5819 24.0533 38.2791 29.5198 34.1536 37.4615C34.824 38.8539 35.7522 40.2979 37.0414 41.8966C41.0123 46.6926 45.1895 48.6522 51.7388 52.6747C58.2881 56.6455 57.3083 58.4505 55.7097 60.2554C54.111 62.0604 51.6356 69.7959 56.3285 72.2196L58.4429 73.5088C64.8374 72.89 70.5617 69.8475 74.6357 65.3093Z" fill="#0B6827"></path>
<rect x="45.3271" y="83.1217" width="19.513" height="3.15652" rx="1.57826" fill="#FF6600"></rect>
</svg>