<svg width="110" height="110" viewBox="0 0 110 110" fill="none" xmlns="http://www.w3.org/2000/svg">
<circle cx="55" cy="55" r="55" fill="white"></circle>
<path d="M55 76.725C68.669 76.725 79.75 71.1552 79.75 64.2845V40.975H30.25V64.2845C30.25 71.1552 41.331 76.725 55 76.725Z" fill="#2D2DA5"></path>
<path d="M51.627 25.0737C53.4899 24.2754 56.5101 24.2754 58.373 25.0737L92.1029 39.5294C93.9657 40.3278 93.9657 41.6222 92.1029 42.4205L58.373 56.8762C56.5101 57.6746 53.4899 57.6746 51.627 56.8762L17.8971 42.4205C16.0343 41.6222 16.0343 40.3278 17.8971 39.5294L51.627 25.0737Z" fill="#5757B7"></path>
<path fill-rule="evenodd" clip-rule="evenodd" d="M55.7361 40.5417C55.9754 41.1001 55.7167 41.7468 55.1583 41.9861L36.025 50.1861V78.1001C36.025 78.7076 35.5325 79.2001 34.925 79.2001C34.3175 79.2001 33.825 78.7076 33.825 78.1001V49.4608C33.825 49.0207 34.0872 48.623 34.4917 48.4497L54.2917 39.964C54.8501 39.7247 55.4968 39.9833 55.7361 40.5417Z" fill="#FF6600"></path>
<path d="M39.6 88.5337C39.6 90.0615 37.5069 91.3 34.925 91.3C32.3431 91.3 30.25 90.0615 30.25 88.5337C30.25 87.0059 34.925 72.6 34.925 72.6C34.925 72.6 39.6 87.0059 39.6 88.5337Z" fill="#FF6600"></path>
<ellipse cx="34.7875" cy="78.1" rx="3.7125" ry="3.575" fill="#FF6600"></ellipse>
</svg>